
<svg width="125pt" height="96pt"
 viewBox="0.00 0.00 125.37 95.60" xmlns="http://www.w3.org/2000/svg" xmlns:xlink="http://www.w3.org/1999/xlink">
<g id="graph0" class="graph" transform="scale(1 1) rotate(0) translate(4 91.6)">
<title>G</title>
<polygon fill="#ffffff" stroke="transparent" points="-4,4 -4,-91.6 121.3745,-91.6 121.3745,4 -4,4"/>
<!-- input -->
<g id="node1" class="node">
<title>input</title>
<polygon fill="none" stroke="#000000" points="0,-62.3 0,-87.1 113.4292,-87.1 113.4292,-62.3 0,-62.3"/>
<text text-anchor="middle" x="11.5" y="-70.5" font-family="Times,serif" font-size="14.00" fill="#000000">p</text>
<polyline fill="none" stroke="#000000" points="23,-62.3 23,-87.1 "/>
<text text-anchor="middle" x="34.1073" y="-70.5" font-family="Times,serif" font-size="14.00" fill="#000000">a</text>
<polyline fill="none" stroke="#000000" points="45.2146,-62.3 45.2146,-87.1 "/>
<text text-anchor="middle" x="56.7146" y="-70.5" font-family="Times,serif" font-size="14.00" fill="#000000">n</text>
<polyline fill="none" stroke="#000000" points="68.2146,-62.3 68.2146,-87.1 "/>
<text text-anchor="middle" x="79.7146" y="-70.5" font-family="Times,serif" font-size="14.00" fill="#000000">p</text>
<polyline fill="none" stroke="#000000" points="91.2146,-62.3 91.2146,-87.1 "/>
<text text-anchor="middle" x="102.3219" y="-70.5" font-family="Times,serif" font-size="14.00" fill="#000000">a</text>
</g>
<!-- output -->
<g id="node2" class="node">
<title>output</title>
<polygon fill="none" stroke="#000000" points=".0547,-.5 .0547,-25.3 117.3745,-25.3 117.3745,-.5 .0547,-.5"/>
<text text-anchor="middle" x="11.5547" y="-8.7" font-family="Times,serif" font-size="14.00" fill="#000000">p</text>
<polyline fill="none" stroke="#000000" points="23.0547,-.5 23.0547,-25.3 "/>
<text text-anchor="middle" x="34.162" y="-8.7" font-family="Times,serif" font-size="14.00" fill="#000000">a</text>
<polyline fill="none" stroke="#000000" points="45.2693,-.5 45.2693,-25.3 "/>
<text text-anchor="middle" x="58.7146" y="-8.7" font-family="Times,serif" font-size="14.00" fill="#000000">m</text>
<polyline fill="none" stroke="#000000" points="72.1599,-.5 72.1599,-25.3 "/>
<text text-anchor="middle" x="83.6599" y="-8.7" font-family="Times,serif" font-size="14.00" fill="#000000">p</text>
<polyline fill="none" stroke="#000000" points="95.1599,-.5 95.1599,-25.3 "/>
<text text-anchor="middle" x="106.2672" y="-8.7" font-family="Times,serif" font-size="14.00" fill="#000000">a</text>
</g>
<!-- input&#45;&#45;output -->
<g id="edge1" class="edge">
<title>input:p&#45;&#45;output:p</title>
<path fill="none" stroke="#000000" stroke-dasharray="5,2" d="M11.7146,-62.7C11.7146,-45.9 11.7146,-41.7 11.7146,-24.9"/>
</g>
<!-- input&#45;&#45;output -->
<g id="edge2" class="edge">
<title>input:n&#45;&#45;output:m</title>
<path fill="none" stroke="#000000" stroke-dasharray="5,2" d="M56.7146,-62.7C56.7146,-45.8765 58.7146,-41.7235 58.7146,-24.9"/>
</g>
<!-- input&#45;&#45;output -->
<g id="edge3" class="edge">
<title>input:a&#45;&#45;output:a</title>
<path fill="none" stroke="#000000" stroke-dasharray="5,2" d="M33.7146,-62.7C33.7146,-45.9 33.7146,-41.7 33.7146,-24.9"/>
</g>
</g>
</svg>
