
<svg width="176pt" height="177pt"
 viewBox="0.00 0.00 176.00 177.20" xmlns="http://www.w3.org/2000/svg" xmlns:xlink="http://www.w3.org/1999/xlink">
<g id="graph0" class="graph" transform="scale(1 1) rotate(0) translate(4 173.2)">
<title>G</title>
<polygon fill="#ffffff" stroke="transparent" points="-4,4 -4,-173.2 172,-173.2 172,4 -4,4"/>
<g id="clust1" class="cluster">
<title>cluster_in</title>
<polygon fill="none" stroke="#ffffff" points="30,-94.6 30,-161.2 160,-161.2 160,-94.6 30,-94.6"/>
<text text-anchor="middle" x="95" y="-144.6" font-family="Times,serif" font-size="14.00" fill="#000000">input</text>
</g>
<g id="clust2" class="cluster">
<title>cluster_out</title>
<polygon fill="none" stroke="#ffffff" points="8,-8 8,-74.6 138,-74.6 138,-8 8,-8"/>
<text text-anchor="middle" x="73" y="-16.2" font-family="Times,serif" font-size="14.00" fill="#000000">output</text>
</g>
<!-- input -->
<g id="node1" class="node">
<title>input</title>
<polygon fill="none" stroke="#000000" points="38.2854,-103.1 38.2854,-127.9 151.7146,-127.9 151.7146,-103.1 38.2854,-103.1"/>
<text text-anchor="middle" x="49.3927" y="-111.3" font-family="Times,serif" font-size="14.00" fill="#000000">a</text>
<polyline fill="none" stroke="#000000" points="60.5,-103.1 60.5,-127.9 "/>
<text text-anchor="middle" x="72" y="-111.3" font-family="Times,serif" font-size="14.00" fill="#000000">n</text>
<polyline fill="none" stroke="#000000" points="83.5,-103.1 83.5,-127.9 "/>
<text text-anchor="middle" x="95" y="-111.3" font-family="Times,serif" font-size="14.00" fill="#000000">p</text>
<polyline fill="none" stroke="#000000" points="106.5,-103.1 106.5,-127.9 "/>
<text text-anchor="middle" x="117.6073" y="-111.3" font-family="Times,serif" font-size="14.00" fill="#000000">a</text>
<polyline fill="none" stroke="#000000" points="128.7146,-103.1 128.7146,-127.9 "/>
<text text-anchor="middle" x="140.2146" y="-111.3" font-family="Times,serif" font-size="14.00" fill="#000000">k</text>
</g>
<!-- output -->
<g id="node2" class="node">
<title>output</title>
<polygon fill="none" stroke="#000000" points="15.8948,-41.3 15.8948,-66.1 130.1052,-66.1 130.1052,-41.3 15.8948,-41.3"/>
<text text-anchor="middle" x="25.8401" y="-49.5" font-family="Times,serif" font-size="14.00" fill="#000000">t</text>
<polyline fill="none" stroke="#000000" points="35.7854,-41.3 35.7854,-66.1 "/>
<text text-anchor="middle" x="46.8927" y="-49.5" font-family="Times,serif" font-size="14.00" fill="#000000">a</text>
<polyline fill="none" stroke="#000000" points="58,-41.3 58,-66.1 "/>
<text text-anchor="middle" x="71.4453" y="-49.5" font-family="Times,serif" font-size="14.00" fill="#000000">m</text>
<polyline fill="none" stroke="#000000" points="84.8906,-41.3 84.8906,-66.1 "/>
<text text-anchor="middle" x="96.3906" y="-49.5" font-family="Times,serif" font-size="14.00" fill="#000000">p</text>
<polyline fill="none" stroke="#000000" points="107.8906,-41.3 107.8906,-66.1 "/>
<text text-anchor="middle" x="118.9979" y="-49.5" font-family="Times,serif" font-size="14.00" fill="#000000">a</text>
</g>
<!-- input&#45;&#45;output -->
<g id="edge1" class="edge">
<title>input:p&#45;&#45;output:p</title>
<path fill="none" stroke="#000000" stroke-dasharray="5,2" d="M95,-103.5C95,-86.6941 96,-82.5059 96,-65.7"/>
</g>
<!-- input&#45;&#45;output -->
<g id="edge2" class="edge">
<title>input:n&#45;&#45;output:m</title>
<path fill="none" stroke="#000000" stroke-dasharray="5,2" d="M72,-103.5C72,-86.6941 71,-82.5059 71,-65.7"/>
</g>
<!-- input&#45;&#45;output -->
<g id="edge3" class="edge">
<title>input:a&#45;&#45;output:a</title>
<path fill="none" stroke="#000000" stroke-dasharray="5,2" d="M49,-103.5C49,-86.6765 47,-82.5235 47,-65.7"/>
</g>
<!-- input&#45;&#45;output -->
<g id="edge4" class="edge">
<title>input:a2&#45;&#45;output:a2</title>
<path fill="none" stroke="#000000" stroke-dasharray="5,2" d="M118,-103.5C118,-86.6941 119,-82.5059 119,-65.7"/>
</g>
</g>
</svg>
