<?xml version="1.0" encoding="UTF-8" standalone="no"?>
<svg
   xmlns:dc="http://purl.org/dc/elements/1.1/"
   xmlns:cc="http://creativecommons.org/ns#"
   xmlns:rdf="http://www.w3.org/1999/02/22-rdf-syntax-ns#"
   xmlns:svg="http://www.w3.org/2000/svg"
   xmlns="http://www.w3.org/2000/svg"
   xmlns:sodipodi="http://sodipodi.sourceforge.net/DTD/sodipodi-0.dtd"
   xmlns:inkscape="http://www.inkscape.org/namespaces/inkscape"
   version="1.1"
   id="svg2"
   xml:space="preserve"
   width="165.39999"
   height="191.46667"
   viewBox="0 0 165.39999 191.46667"
   sodipodi:docname="Shield_open_pos.eps"><metadata
     id="metadata8"><rdf:RDF><cc:Work
         rdf:about=""><dc:format>image/svg+xml</dc:format><dc:type
           rdf:resource="http://purl.org/dc/dcmitype/StillImage" /></cc:Work></rdf:RDF></metadata><defs
     id="defs6" /><sodipodi:namedview
     pagecolor="#ffffff"
     bordercolor="#666666"
     borderopacity="1"
     objecttolerance="10"
     gridtolerance="10"
     guidetolerance="10"
     inkscape:pageopacity="0"
     inkscape:pageshadow="2"
     inkscape:window-width="640"
     inkscape:window-height="480"
     id="namedview4" /><g
     id="g10"
     inkscape:groupmode="layer"
     inkscape:label="ink_ext_XXXXXX"
     transform="matrix(1.3333333,0,0,-1.3333333,0,191.46667)"><g
       id="g12"
       transform="scale(0.1)"><path
         d="m 912.09,1224.32 40.195,-33.57 c 1.68,-1.41 2.317,-3.71 1.57,-5.78 l -16.812,-46.99 42.73,27.84 c 1.692,1.1 3.872,1.14 5.598,0.07 l 42.269,-26.04 -18.06,44.94 c -0.82,2.05 -0.26,4.41 1.4,5.87 l 38.23,33.66 h -48.43 c -2.12,0 -4.022,1.28 -4.835,3.24 l -17.312,42.05 -13.711,-41.69 c -0.703,-2.15 -2.703,-3.6 -4.961,-3.6 z m 14.797,-104.41 c -1.157,0 -2.297,0.37 -3.242,1.12 -1.758,1.39 -2.434,3.75 -1.68,5.86 l 20.816,58.17 -48.457,40.48 c -1.687,1.41 -2.312,3.72 -1.558,5.79 0.75,2.07 2.714,3.44 4.91,3.44 h 58.508 l 16.941,51.53 c 0.684,2.08 2.59,3.51 4.766,3.59 2.507,0.14 4.199,-1.21 5.031,-3.23 l 21.358,-51.89 h 58.78 c 2.17,0 4.12,-1.34 4.89,-3.38 0.76,-2.03 0.19,-4.33 -1.44,-5.76 l -45.85,-40.37 22.59,-56.24 c 0.84,-2.09 0.25,-4.49 -1.48,-5.95 -1.73,-1.44 -4.19,-1.63 -6.12,-0.44 l -52.947,32.63 -52.969,-34.51 c -0.867,-0.57 -1.863,-0.84 -2.847,-0.84"
         style="fill:#231f20;fill-opacity:1;fill-rule:nonzero;stroke:none"
         id="path14" /><path
         d="m 553.004,1185.72 40.16,-33.57 c 1.68,-1.4 2.305,-3.71 1.566,-5.77 l -16.816,-46.97 42.594,27.81 c 1.687,1.1 3.879,1.14 5.597,0.08 l 42.333,-26.04 -18.204,44.92 c -0.839,2.05 -0.273,4.42 1.399,5.89 l 38.355,33.65 h -48.511 c -2.122,0 -4.036,1.28 -4.836,3.24 l -17.227,42 -13.641,-41.64 c -0.707,-2.15 -2.707,-3.6 -4.968,-3.6 z m 14.75,-104.42 c -1.149,0 -2.289,0.38 -3.238,1.13 -1.762,1.38 -2.442,3.75 -1.684,5.86 l 20.824,58.18 -48.414,40.47 c -1.683,1.41 -2.308,3.72 -1.554,5.79 0.746,2.07 2.714,3.44 4.91,3.44 h 58.418 l 16.882,51.53 c 0.676,2.08 2.586,3.52 4.774,3.6 2.152,0.07 4.195,-1.21 5.023,-3.24 l 21.285,-51.89 h 58.899 c 2.176,0 4.117,-1.35 4.891,-3.38 0.761,-2.04 0.183,-4.34 -1.446,-5.77 l -46.008,-40.36 22.786,-56.23 c 0.847,-2.09 0.253,-4.49 -1.465,-5.95 -1.719,-1.46 -4.199,-1.64 -6.114,-0.46 l -53.078,32.64 -52.836,-34.51 c -0.867,-0.57 -1.863,-0.85 -2.855,-0.85"
         style="fill:#231f20;fill-opacity:1;fill-rule:nonzero;stroke:none"
         id="path16" /><path
         d="m 191.895,1224.32 40.168,-33.57 c 1.675,-1.41 2.3,-3.71 1.566,-5.78 l -16.82,-46.99 42.769,27.84 c 1.699,1.11 3.879,1.14 5.598,0.07 l 42.273,-26.04 -18.054,44.94 c -0.825,2.05 -0.27,4.41 1.394,5.87 l 38.238,33.66 h -48.425 c -2.122,0 -4.032,1.28 -4.836,3.24 l -17.328,42.07 -13.747,-41.72 c -0.707,-2.14 -2.711,-3.59 -4.964,-3.59 z m 14.761,-104.41 c -1.148,0 -2.297,0.37 -3.242,1.12 -1.758,1.39 -2.437,3.75 -1.68,5.86 l 20.821,58.18 -48.414,40.47 c -1.684,1.41 -2.309,3.73 -1.559,5.79 0.746,2.07 2.715,3.44 4.914,3.44 h 58.449 l 16.985,51.54 c 0.687,2.07 2.593,3.51 4.773,3.58 2.121,0.01 4.192,-1.21 5.027,-3.23 l 21.372,-51.89 h 58.773 c 2.176,0 4.121,-1.34 4.891,-3.38 0.769,-2.03 0.199,-4.33 -1.438,-5.76 l -45.859,-40.37 22.594,-56.24 c 0.843,-2.09 0.242,-4.49 -1.481,-5.95 -1.723,-1.44 -4.18,-1.63 -6.113,-0.44 l -52.957,32.63 -53.004,-34.51 c -0.871,-0.57 -1.86,-0.84 -2.852,-0.84"
         style="fill:#231f20;fill-opacity:1;fill-rule:nonzero;stroke:none"
         id="path18" /><path
         d="m 75.2539,724.828 0.7734,-0.199 c 29.1997,-7.285 59.9177,-14.074 91.1837,-20.141 26.383,-5.125 52.707,-9.468 77.562,-13.406 l -0.261,169.68 -0.844,0.144 c -26.516,4.672 -53.691,9.793 -88.137,16.621 -25.609,5.075 -61.4372,13.453 -80.2771,18.004 z M 252.105,675.203 c -0.375,0 -0.757,0.031 -1.132,0.09 -27.45,4.297 -56.926,9.082 -86.547,14.82 -31.52,6.125 -62.492,12.961 -92.0588,20.344 l -6.3086,1.625 c -3.207,0.852 -5.4414,3.758 -5.4414,7.074 v 185.696 c 0,2.25 1.0391,4.378 2.8125,5.765 1.7812,1.383 4.1016,1.863 6.2773,1.332 13.0039,-3.238 58.168,-14.027 88.668,-20.066 34.34,-6.801 61.426,-11.91 87.813,-16.559 l 6.847,-1.179 c 3.524,-0.598 6.102,-3.637 6.106,-7.207 l 0.285,-184.411 c 0,-2.136 -0.934,-4.168 -2.563,-5.566 -1.332,-1.145 -3.023,-1.758 -4.758,-1.758"
         style="fill:#231f20;fill-opacity:1;fill-rule:nonzero;stroke:none"
         id="path20" /><path
         d="m 994.98,860.762 -0.253,-169.68 c 24.943,3.945 51.313,8.313 77.563,13.406 31.36,6.086 62.08,12.867 91.28,20.168 l 0.68,0.172 v 170.699 c -18.74,-4.527 -54.39,-12.863 -80.29,-18 -34.39,-6.816 -61.57,-11.937 -88.108,-16.617 z m -7.585,-185.559 c -1.743,0 -3.43,0.613 -4.758,1.758 -1.629,1.398 -2.571,3.43 -2.559,5.566 l 0.281,184.411 c 0,3.57 2.579,6.617 6.106,7.207 l 6.863,1.187 c 26.432,4.652 53.512,9.758 87.782,16.551 30.89,6.129 75.81,16.855 88.68,20.066 2.15,0.563 4.5,0.067 6.27,-1.332 1.78,-1.387 2.82,-3.515 2.82,-5.765 V 719.156 c 0,-3.316 -2.23,-6.218 -5.44,-7.066 l -6.22,-1.61 c -29.55,-7.386 -60.52,-14.222 -92.14,-20.367 -29.47,-5.711 -59.02,-10.504 -86.557,-14.82 -0.378,-0.059 -0.75,-0.09 -1.128,-0.09"
         style="fill:#231f20;fill-opacity:1;fill-rule:nonzero;stroke:none"
         id="path22" /><path
         d="m 74.1367,1101.43 c 27.5583,-8.89 216.6523,-65.78 537.7263,-65.79 l 7.828,0.01 c 265.946,0.76 512.619,57.92 546.569,66.1 v 243.73 c -38,-9.97 -235.127,-57.7 -525.354,-57.7 -0.015,0 -0.039,0 -0.054,0 -7.024,0 -14.059,0.02 -21.184,0.08 -284.41,2.22 -505.543,48.9 -545.5313,57.88 z m 537.7263,-76.24 c -348.496,0 -542.7614,66.85 -544.6833,67.53 -2.0977,0.74 -3.4922,2.71 -3.4922,4.93 v 254.66 c 0,1.6 0.7305,3.11 1.9922,4.1 1.2578,1 2.8867,1.37 4.4609,0.98 2.3399,-0.57 237.7074,-56.64 549.6054,-59.08 7.102,-0.05 14.109,-0.08 21.106,-0.08 0.015,0 0.039,0 0.054,0 320.981,0 527.084,58.51 529.124,59.1 1.58,0.47 3.28,0.14 4.6,-0.84 1.31,-0.99 2.08,-2.54 2.08,-4.18 v -254.66 c 0,-2.39 -1.62,-4.48 -3.95,-5.07 -2.63,-0.66 -266.705,-66.56 -553.037,-67.38 l -7.86,-0.01"
         style="fill:#231f20;fill-opacity:1;fill-rule:nonzero;stroke:none"
         id="path24" /><path
         d="m 255.258,328.141 h 9.578 v 43.121 c 0,0.558 0.125,1.117 0.367,1.629 l 9.438,19.679 v 45.582 l -14.657,14.328 -14.691,-14.328 0.113,-45.582 9.477,-19.679 c 0.25,-0.512 0.375,-1.071 0.375,-1.629 z m 13.34,-7.52 h -17.106 c -2.078,0 -3.762,1.68 -3.762,3.758 v 46.019 l -9.472,19.684 c -0.246,0.5 -0.371,1.047 -0.375,1.617 l -0.125,48.028 c 0,1.011 0.41,1.992 1.14,2.703 l 18.465,18.008 c 1.477,1.425 3.805,1.417 5.258,0 l 18.414,-18.008 c 0.723,-0.711 1.133,-1.68 1.133,-2.696 v -48.023 c 0,-0.57 -0.129,-1.129 -0.371,-1.629 l -9.434,-19.684 v -46.019 c 0,-2.078 -1.683,-3.758 -3.765,-3.758"
         style="fill:#231f20;fill-opacity:1;fill-rule:nonzero;stroke:none"
         id="path26" /><path
         d="m 221.445,328.141 h 7.496 v 32.078 l -18.394,24.09 h -41.25 v -16.821 l 10.562,-10.687 18.368,11.949 c 1.429,0.941 3.339,0.781 4.601,-0.391 L 220.23,352.32 c 0.778,-0.711 1.215,-1.711 1.215,-2.761 z m 11.258,-7.52 H 217.68 c -2.078,0 -3.766,1.68 -3.766,3.758 v 23.531 l -14.035,12.942 -18.492,-12.02 c -1.489,-0.98 -3.465,-0.773 -4.727,0.5 l -13.805,13.969 c -0.699,0.699 -1.085,1.66 -1.085,2.648 v 22.121 c 0,2.078 1.683,3.762 3.761,3.762 h 46.875 c 1.172,0 2.282,-0.543 2.992,-1.473 l 20.301,-26.578 c 0.496,-0.66 0.77,-1.461 0.77,-2.293 v -37.109 c 0,-2.078 -1.684,-3.758 -3.766,-3.758"
         style="fill:#231f20;fill-opacity:1;fill-rule:nonzero;stroke:none"
         id="path28" /><path
         d="m 291.273,328.141 h 7.54 v 21.418 c 0,1.05 0.441,2.05 1.214,2.761 l 17.395,16.039 c 1.262,1.172 3.152,1.332 4.601,0.391 l 18.372,-11.941 10.523,10.679 v 16.821 h -41.211 l -18.434,-24.09 z m 11.305,-7.52 h -15.066 c -2.082,0 -3.766,1.68 -3.766,3.758 v 37.109 c 0,0.832 0.274,1.633 0.777,2.293 l 20.336,26.578 c 0.711,0.93 1.817,1.473 2.989,1.473 h 46.836 c 2.078,0 3.761,-1.684 3.761,-3.762 v -22.121 c 0,-0.988 -0.386,-1.937 -1.082,-2.64 L 343.605,349.34 c -1.257,-1.281 -3.23,-1.488 -4.734,-0.508 l -18.5,12.02 -14.027,-12.942 v -23.531 c 0,-2.078 -1.688,-3.758 -3.766,-3.758"
         style="fill:#231f20;fill-opacity:1;fill-rule:nonzero;stroke:none"
         id="path30" /><path
         d="m 206.859,293.199 15.121,-12.777 6.844,8.297 v 13.312 h -21.965 z m 15.602,-21.867 c -0.883,0 -1.746,0.309 -2.434,0.879 l -19.363,16.371 c -0.844,0.719 -1.332,1.77 -1.332,2.867 v 14.34 c 0,2.082 1.684,3.762 3.766,3.762 h 29.492 c 2.078,0 3.762,-1.68 3.762,-3.762 v -18.418 c 0,-0.871 -0.301,-1.723 -0.86,-2.391 l -10.125,-12.289 c -0.64,-0.781 -1.566,-1.269 -2.57,-1.351 -0.109,-0.008 -0.223,-0.008 -0.336,-0.008"
         style="fill:#231f20;fill-opacity:1;fill-rule:nonzero;stroke:none"
         id="path32" /><path
         d="m 291.152,288.719 6.836,-8.297 15.117,12.777 v 8.832 h -21.953 z m 6.352,-17.387 c -0.109,0 -0.223,0 -0.336,0.008 -1.008,0.082 -1.93,0.57 -2.566,1.351 L 284.48,284.98 c -0.554,0.668 -0.859,1.52 -0.859,2.391 v 18.418 c 0,2.082 1.688,3.762 3.766,3.762 h 29.484 c 2.078,0 3.766,-1.68 3.766,-3.762 v -14.34 c 0,-1.097 -0.489,-2.148 -1.336,-2.867 l -19.363,-16.371 c -0.684,-0.57 -1.547,-0.879 -2.434,-0.879"
         style="fill:#231f20;fill-opacity:1;fill-rule:nonzero;stroke:none"
         id="path34" /><path
         d="m 246.508,266.789 13.379,-16.398 c 2.476,3.129 6.562,8.14 13.293,16.398 l -9.563,13.922 c -0.433,0.629 -0.664,1.367 -0.664,2.129 v 19.191 h -6.234 V 282.84 c 0,-0.762 -0.231,-1.5 -0.66,-2.129 z m 13.355,-26.09 c -1.109,0 -2.187,0.492 -2.914,1.379 l -18.051,22.133 c -1.054,1.301 -1.132,3.129 -0.191,4.508 L 249.188,284 v 21.789 c 0,2.082 1.687,3.762 3.765,3.762 h 13.766 c 2.082,0 3.765,-1.68 3.765,-3.762 v -21.777 l 10.493,-15.293 c 0.949,-1.379 0.875,-3.207 -0.188,-4.508 0,0 -16.84,-20.641 -17.898,-21.992 -0.418,-0.559 -1.004,-1.02 -1.7,-1.27 -0.429,-0.168 -0.882,-0.25 -1.328,-0.25"
         style="fill:#231f20;fill-opacity:1;fill-rule:nonzero;stroke:none"
         id="path36" /><path
         d="m 613.609,231.422 h 13.907 v 56.687 c 0,0.621 0.136,1.211 0.398,1.77 l 12.328,25.652 v 59.61 l -19.762,18.371 -19.679,-18.364 0.179,-59.617 12.235,-25.66 c 0.258,-0.551 0.394,-1.152 0.394,-1.762 z m 17.985,-8.141 h -22.063 c -2.25,0 -4.078,1.821 -4.078,4.071 v 59.847 l -12.226,25.641 c -0.258,0.551 -0.395,1.14 -0.395,1.75 l -0.191,62.32 c -0.004,1.141 0.464,2.219 1.297,2.988 l 23.753,22.172 c 1.567,1.461 3.985,1.45 5.563,0.008 L 647.09,379.91 c 0.832,-0.769 1.301,-1.859 1.301,-2.988 v -62.32 c 0,-0.622 -0.137,-1.211 -0.403,-1.77 l -12.324,-25.641 v -59.839 c 0,-2.25 -1.816,-4.071 -4.07,-4.071"
         style="fill:#231f20;fill-opacity:1;fill-rule:nonzero;stroke:none"
         id="path38" /><path
         d="m 572.73,231.422 h 11.407 v 42.699 l -24.313,31.758 h -54.672 v -23.008 l 14.336,-14.531 24.41,15.832 c 1.555,1.019 3.606,0.84 4.973,-0.422 l 22.539,-20.738 c 0.84,-0.782 1.32,-1.864 1.32,-3 z m 15.485,-8.141 h -19.563 c -2.25,0 -4.078,1.821 -4.078,4.071 v 30.867 l -18.894,17.39 -24.543,-15.91 c -1.614,-1.051 -3.758,-0.828 -5.117,0.551 l -17.844,18.09 c -0.758,0.762 -1.18,1.789 -1.18,2.859 v 28.75 c 0,2.262 1.828,4.071 4.078,4.071 h 60.762 c 1.269,0 2.465,-0.579 3.238,-1.59 l 26.375,-34.45 c 0.547,-0.718 0.84,-1.589 0.84,-2.48 v -48.148 c 0,-2.25 -1.824,-4.071 -4.074,-4.071"
         style="fill:#231f20;fill-opacity:1;fill-rule:nonzero;stroke:none"
         id="path40" /><path
         d="m 657.148,231.422 h 11.582 v 28.59 c 0,1.136 0.469,2.218 1.309,3 l 22.5,20.738 c 1.356,1.27 3.43,1.43 4.981,0.422 l 24.394,-15.82 14.309,14.519 v 23.008 h -54.629 l -24.446,-31.77 z m 15.657,-8.141 h -19.731 c -2.254,0 -4.07,1.821 -4.07,4.071 V 275.5 c 0,0.891 0.293,1.77 0.84,2.488 l 26.504,34.453 c 0.769,1 1.965,1.579 3.23,1.579 h 60.715 c 2.258,0 4.07,-1.809 4.07,-4.071 v -28.75 c 0,-1.07 -0.418,-2.097 -1.16,-2.859 l -17.805,-18.09 c -1.367,-1.379 -3.523,-1.59 -5.125,-0.551 l -24.531,15.903 -18.867,-17.383 v -30.867 c 0,-2.25 -1.816,-4.071 -4.07,-4.071"
         style="fill:#231f20;fill-opacity:1;fill-rule:nonzero;stroke:none"
         id="path42" /><path
         d="m 554.031,189.102 20.481,-17.352 9.625,11.621 v 18.289 h -30.106 z m 20.989,-27.211 c -0.961,0 -1.899,0.328 -2.637,0.968 l -25.063,21.25 c -0.914,0.77 -1.441,1.903 -1.441,3.102 v 18.519 c 0,2.258 1.824,4.071 4.078,4.071 h 38.258 c 2.25,0 4.074,-1.813 4.074,-4.071 v -23.832 c 0,-0.937 -0.332,-1.859 -0.937,-2.597 l -13.192,-15.93 c -0.695,-0.84 -1.695,-1.371 -2.785,-1.473 -0.117,-0.007 -0.238,-0.007 -0.355,-0.007"
         style="fill:#231f20;fill-opacity:1;fill-rule:nonzero;stroke:none"
         id="path44" /><path
         d="m 657.148,183.379 9.747,-11.649 20.507,17.372 v 12.558 h -30.254 z m 9.247,-21.488 c -0.118,0 -0.235,0 -0.348,0.007 -1.086,0.102 -2.082,0.622 -2.777,1.454 l -13.321,15.937 c -0.613,0.731 -0.945,1.66 -0.945,2.609 v 23.832 c 0,2.258 1.816,4.071 4.07,4.071 h 38.403 c 2.253,0 4.07,-1.813 4.07,-4.071 v -18.519 c 0,-1.199 -0.52,-2.332 -1.438,-3.109 l -25.078,-21.25 c -0.738,-0.633 -1.676,-0.961 -2.636,-0.961"
         style="fill:#231f20;fill-opacity:1;fill-rule:nonzero;stroke:none"
         id="path46" /><path
         d="m 602.324,155.148 18.242,-22.488 c 3.141,4.031 8.618,10.789 18.125,22.488 l -12.695,18.532 c -0.465,0.672 -0.715,1.48 -0.715,2.3 v 25.68 h -9.593 v -25.68 c 0,-0.82 -0.25,-1.621 -0.708,-2.289 z m 18.188,-32.957 c -1.199,0 -2.371,0.52 -3.168,1.5 l -23.266,28.688 c -1.133,1.402 -1.219,3.383 -0.199,4.859 l 13.656,20 v 28.492 c 0,2.258 1.824,4.071 4.074,4.071 h 17.75 c 2.25,0 4.079,-1.813 4.079,-4.071 v -28.492 l 13.703,-19.988 c 1.023,-1.488 0.945,-3.469 -0.2,-4.871 0,0 -21.992,-27.07 -23.164,-28.559 -0.422,-0.57 -0.996,-1.031 -1.683,-1.32 -0.512,-0.219 -1.047,-0.309 -1.582,-0.309"
         style="fill:#231f20;fill-opacity:1;fill-rule:nonzero;stroke:none"
         id="path48" /><path
         d="m 975.313,328.141 h 9.628 v 43.121 c 0,0.558 0.125,1.117 0.372,1.629 l 9.433,19.679 v 45.582 l -14.656,14.328 -14.692,-14.328 0.122,-45.582 9.429,-19.691 c 0.239,-0.5 0.364,-1.059 0.364,-1.617 z m 13.386,-7.52 h -17.144 c -2.082,0 -3.762,1.68 -3.762,3.758 v 46.019 l -9.434,19.692 c -0.234,0.492 -0.363,1.051 -0.363,1.609 l -0.125,48.028 c -0.012,1.011 0.399,1.992 1.133,2.703 l 18.457,18.008 c 1.465,1.425 3.809,1.425 5.254,0 l 18.415,-18.008 c 0.74,-0.711 1.14,-1.68 1.14,-2.696 v -48.023 c 0,-0.57 -0.13,-1.129 -0.38,-1.629 l -9.429,-19.684 v -46.019 c 0,-2.078 -1.68,-3.758 -3.762,-3.758"
         style="fill:#231f20;fill-opacity:1;fill-rule:nonzero;stroke:none"
         id="path50" /><path
         d="m 941.543,328.141 h 7.551 v 32.07 l -18.442,24.098 h -41.265 v -16.821 l 10.574,-10.687 18.418,11.949 c 1.457,0.941 3.332,0.781 4.609,-0.391 l 17.356,-16.039 c 0.761,-0.711 1.199,-1.718 1.199,-2.761 z m 11.309,-7.52 h -15.071 c -2.078,0 -3.758,1.68 -3.758,3.758 v 23.531 l -14.003,12.942 -18.536,-12.02 c -1.511,-0.973 -3.464,-0.762 -4.726,0.5 l -13.809,13.969 c -0.691,0.699 -1.086,1.66 -1.086,2.648 v 22.121 c 0,2.078 1.684,3.762 3.762,3.762 h 46.887 c 1.172,0 2.273,-0.543 2.984,-1.473 l 20.344,-26.578 c 0.5,-0.66 0.769,-1.461 0.769,-2.293 v -37.109 c 0,-2.078 -1.675,-3.758 -3.757,-3.758"
         style="fill:#231f20;fill-opacity:1;fill-rule:nonzero;stroke:none"
         id="path52" /><path
         d="m 1011.38,328.141 h 7.54 v 21.418 c 0,1.05 0.44,2.05 1.21,2.761 l 17.39,16.039 c 1.27,1.172 3.17,1.332 4.6,0.391 l 18.39,-11.949 10.57,10.687 v 16.821 h -41.29 l -18.41,-24.09 z m 11.3,-7.52 h -15.06 c -2.08,0 -3.76,1.68 -3.76,3.758 v 37.109 c 0,0.832 0.26,1.633 0.77,2.293 l 20.32,26.578 c 0.71,0.93 1.82,1.473 2.99,1.473 h 46.9 c 2.08,0 3.76,-1.684 3.76,-3.762 v -22.121 c 0,-0.988 -0.39,-1.949 -1.08,-2.648 l -13.82,-13.969 c -1.27,-1.262 -3.25,-1.473 -4.73,-0.5 l -18.5,12.02 -14.03,-12.942 v -23.531 c 0,-2.078 -1.68,-3.758 -3.76,-3.758"
         style="fill:#231f20;fill-opacity:1;fill-rule:nonzero;stroke:none"
         id="path54" /><path
         d="m 926.953,293.199 15.125,-12.777 6.848,8.297 v 13.312 h -21.973 z m 15.606,-21.867 c -0.887,0 -1.746,0.309 -2.43,0.879 l -19.367,16.371 c -0.84,0.719 -1.328,1.77 -1.328,2.867 v 14.34 c 0,2.082 1.679,3.762 3.757,3.762 h 29.497 c 2.078,0 3.757,-1.68 3.757,-3.762 v -18.418 c 0,-0.871 -0.3,-1.723 -0.859,-2.391 l -10.125,-12.289 c -0.637,-0.781 -1.566,-1.269 -2.563,-1.351 -0.117,-0.008 -0.23,-0.008 -0.339,-0.008"
         style="fill:#231f20;fill-opacity:1;fill-rule:nonzero;stroke:none"
         id="path56" /><path
         d="m 1011.25,288.719 6.85,-8.297 15.08,12.777 v 8.832 h -21.93 z m 6.37,-17.387 c -0.11,0 -0.23,0 -0.33,0.008 -1.01,0.082 -1.94,0.57 -2.57,1.351 l -10.13,12.289 c -0.56,0.668 -0.86,1.52 -0.86,2.391 v 18.418 c 0,2.082 1.68,3.762 3.76,3.762 h 29.45 c 2.08,0 3.76,-1.68 3.76,-3.762 v -14.34 c 0,-1.097 -0.48,-2.148 -1.32,-2.867 l -19.33,-16.371 c -0.68,-0.57 -1.54,-0.879 -2.43,-0.879"
         style="fill:#231f20;fill-opacity:1;fill-rule:nonzero;stroke:none"
         id="path58" /><path
         d="m 966.621,266.789 13.367,-16.398 c 2.473,3.129 6.555,8.14 13.282,16.398 l -9.547,13.922 c -0.43,0.629 -0.657,1.367 -0.657,2.129 v 19.191 h -6.242 V 282.84 c 0,-0.762 -0.222,-1.5 -0.652,-2.129 z m 13.34,-26.09 c -1.106,0 -2.188,0.492 -2.918,1.391 l -18.039,22.129 c -1.055,1.293 -1.133,3.121 -0.188,4.5 L 969.309,284 v 21.789 c 0,2.082 1.675,3.762 3.757,3.762 h 13.758 c 2.082,0 3.762,-1.68 3.762,-3.762 V 284 l 10.484,-15.281 c 0.95,-1.379 0.87,-3.207 -0.18,-4.508 0,0 -16.874,-20.68 -17.91,-22 -0.421,-0.563 -1,-1.012 -1.691,-1.27 -0.437,-0.16 -0.891,-0.242 -1.328,-0.242"
         style="fill:#231f20;fill-opacity:1;fill-rule:nonzero;stroke:none"
         id="path60" /><path
         d="m 392.715,649.297 194.359,-0.024 c 1.965,0 3.961,-0.781 5.336,-2.183 l 27.793,-28.266 27.785,28.266 c 1.367,1.402 3.25,2.183 5.215,2.183 H 847.727 L 847.449,970.16 H 651.902 l -26.543,-26.375 c -2.847,-2.828 -7.464,-2.836 -10.316,0.008 L 588.535,970.16 H 392.984 Z M 620.203,601.07 c -1.961,0 -3.84,0.785 -5.219,2.192 l -30.859,31.386 H 385.883 c -0.192,0 -0.879,0.04 -1.07,0.059 -3.805,0.301 -6.743,3.477 -6.743,7.305 l 0.285,335.5 c 0.004,2.121 0.922,4.133 2.52,5.519 1.598,1.391 3.719,2.016 5.809,1.723 l 204.195,0.043 c 0.621,0.058 1.25,0.031 1.879,-0.078 1.746,-0.297 3.258,-1.196 4.351,-2.449 l 23.102,-22.973 22.57,22.433 c 1.098,1.532 2.778,2.637 4.758,2.965 0.449,0.078 0.879,0.133 1.348,0.102 v 0 h 205.586 c 1.496,-0.106 3.523,-0.535 4.882,-1.668 1.68,-1.395 2.723,-3.438 2.723,-5.617 l 0.285,-335.5 c 0.008,-3.801 -2.89,-6.965 -6.672,-7.297 -0.211,-0.02 -0.867,-0.067 -1.082,-0.067 H 656.27 l -30.844,-31.386 c -1.379,-1.407 -3.258,-2.192 -5.223,-2.192"
         style="fill:#231f20;fill-opacity:1;fill-rule:nonzero;stroke:none"
         id="path62" /><path
         d="m 312.141,565.547 h 257.293 c 1.816,0 3.57,-0.676 4.918,-1.899 l 45.851,-41.609 45.891,41.609 c 1.34,1.223 3.094,1.899 4.914,1.899 h 257.305 v 333.758 l -28.247,22.203 0.344,-320.414 c 0.012,-3.75 -2.82,-6.899 -6.555,-7.285 -0.25,-0.032 -1.062,-0.098 -1.316,-0.098 H 661.418 l -36.402,-31.762 c -2.754,-2.398 -6.864,-2.398 -9.618,0 l -36.457,31.762 H 347.91 c -0.262,0 -1.07,0.066 -1.332,0.098 -3.711,0.41 -6.523,3.543 -6.523,7.273 l 0.148,320.391 -28.062,-22.157 z m 308.062,-60.703 c -1.762,0 -3.519,0.625 -4.914,1.89 l -48.684,44.184 H 304.82 c -4.043,0 -7.32,3.27 -7.32,7.312 v 344.629 c 0,2.243 1.023,4.356 2.781,5.743 l 42.711,33.718 c 2.211,1.746 5.207,2.063 7.731,0.848 2.523,-1.227 4.125,-3.785 4.125,-6.594 L 354.691,608.359 581.68,608.34 c 1.765,0 3.472,-0.637 4.804,-1.797 l 33.715,-29.367 33.656,29.367 c 1.34,1.16 3.047,1.797 4.817,1.797 H 885.77 l -0.348,328.23 c -0.012,2.805 1.59,5.364 4.109,6.59 2.512,1.227 5.508,0.922 7.727,-0.828 l 42.887,-33.723 c 1.769,-1.382 2.793,-3.504 2.793,-5.75 V 558.23 c 0,-4.042 -3.27,-7.312 -7.313,-7.312 H 673.828 l -48.707,-44.184 c -1.394,-1.265 -3.152,-1.89 -4.918,-1.89"
         style="fill:#231f20;fill-opacity:1;fill-rule:nonzero;stroke:none"
         id="path64" /><path
         d="m 24.0039,1412.45 c -0.0078,-6.64 -0.0078,-13.29 -0.0078,-19.93 0,-17.81 0.0039,-35.63 -0.1953,-53.45 -0.4766,-39.14 -0.457,-78.94 -0.4375,-117.44 0.0195,-32.36 0.0351,-64.71 -0.2227,-97.07 -0.4062,-51.46 -0.4101,-102.92 -0.4218,-154.376 -0.004,-41.86 -0.0079,-83.719 -0.2266,-125.586 -0.4414,-91.426 -0.4961,-186.239 -0.168,-281.797 0.0781,-21.524 -0.3203,-42.879 -0.707,-63.535 C 20.5625,442.813 19.5625,389.5 27.5703,333.219 38.6523,255.191 124.016,212.969 186.344,182.129 274.258,138.609 594.508,26.1914 620.199,20.9688 c 25.739,5.2421 346.09,117.6912 433.941,161.1602 62.32,30.832 147.65,73.051 158.76,151.09 8.01,56.301 7.01,109.64 5.97,166.105 -0.39,20.645 -0.78,41.985 -0.71,63.477 0.33,96.242 0.26,191.051 -0.21,281.797 -0.2,40.183 -0.21,80.367 -0.21,120.547 0,53.135 -0.01,106.265 -0.45,159.405 -0.25,32.55 -0.23,65.08 -0.21,97.62 0.02,38.32 0.04,77.95 -0.4,116.9 -0.22,17.82 -0.22,35.66 -0.21,53.49 0,6.63 0.01,13.26 0,19.89 -59,-13.23 -311.95,-66.07 -587.63,-66.07 l -8.68,0.01 -8.59,-0.01 C 335.891,1346.37 83,1399.22 24.0039,1412.45 Z M 619.973,0 c 0,0 0,0 -0.008,0 C 603.688,0.0117188 262.594,121.059 177.07,163.398 110.574,196.289 19.5078,241.352 6.86719,330.27 -1.37109,388.211 -0.359375,442.344 0.714844,499.656 1.09375,520.191 1.49609,541.434 1.41797,562.723 1.08984,658.348 1.14453,753.215 1.58203,844.699 c 0.21875,41.836 0.22656,83.664 0.23047,125.485 0.00781,51.516 0.01563,103.026 0.41797,154.546 0.26172,32.29 0.24609,64.59 0.22656,96.88 -0.01953,38.57 -0.03906,78.45 0.4336,117.71 0.19921,17.72 0.19531,35.46 0.19531,53.2 0,11.04 0,22.07 0.04297,33.11 0.01562,3.2 1.49609,6.22 4.01562,8.19 2.51563,1.97 5.79687,2.68 8.91407,1.92 2.8086,-0.68 284.5624,-68.47 595.5114,-68.46 l 8.59,0.02 8.68,-0.02 c 310.945,0.01 592.77,67.78 595.58,68.46 3.07,0.76 6.39,0.05 8.91,-1.92 2.53,-1.97 4,-4.99 4.01,-8.19 0.05,-11.02 0.05,-22.05 0.04,-33.08 -0.01,-17.74 -0.02,-35.49 0.2,-53.23 0.45,-39.09 0.43,-78.78 0.41,-117.16 -0.02,-32.48 -0.04,-64.96 0.2,-97.43 0.45,-53.2 0.46,-106.39 0.46,-159.585 0,-40.145 0.01,-80.293 0.2,-120.446 0.48,-90.801 0.54,-185.668 0.21,-281.976 -0.07,-21.258 0.32,-42.481 0.71,-63.008 1.07,-57.324 2.08,-111.477 -6.17,-169.445 C 1220.93,241.332 1129.89,196.289 1063.42,163.398 977.82,121.039 636.688,0 620.434,0 c -0.145,0 -0.305,0 -0.461,0"
         style="fill:#231f20;fill-opacity:1;fill-rule:nonzero;stroke:none"
         id="path66" /><path
         d="m 71.3125,517.242 c -0.1602,-7.461 -0.3711,-15.176 -0.5859,-23.054 -1.2032,-44.375 -2.5782,-94.668 3.3164,-136.7 9.6133,-68.379 77.605,-99.828 137.602,-127.566 l 10.242,-4.75 C 289.273,193.789 459.004,131.41 560.414,94.1406 585.945,84.75 606.848,77.082 620.203,72.0586 633.379,77 653.879,84.5313 678.895,93.7305 780.637,131.109 950.918,193.672 1018.56,225.172 l 10.27,4.758 c 59.97,27.742 127.96,59.191 137.56,127.558 5.87,41.844 4.52,91.922 3.32,136.106 -0.22,8.086 -0.43,15.996 -0.6,23.648 -40.3,-9.285 -266.962,-58.562 -537.567,-58.562 l -11.363,0.031 -11.309,-0.031 c -270.605,0 -497.254,49.277 -537.5585,58.562 z M 620.203,61.25 c -0.625,0 -1.25,0.1094 -1.844,0.332 -13.222,4.9883 -34.847,12.9375 -61.55,22.7461 C 455.242,121.66 285.254,184.129 217.473,215.699 l -10.215,4.742 c -59.328,27.43 -133.1603,61.571 -143.5666,135.59 -6.0156,42.899 -4.6328,93.657 -3.4141,138.442 0.2735,10.144 0.543,20.015 0.7188,29.441 0.0312,1.594 0.7812,3.074 2.0391,4.043 1.2578,0.984 2.8945,1.316 4.4414,0.938 2.4179,-0.606 245.4684,-59.766 541.3944,-59.766 l 11.309,0.027 11.363,-0.027 c 295.93,0.012 538.997,59.16 541.417,59.766 1.52,0.363 3.17,0.039 4.43,-0.938 1.26,-0.969 2.01,-2.461 2.04,-4.043 0.18,-9.609 0.45,-19.68 0.73,-30.039 1.21,-44.59 2.57,-95.125 -3.42,-137.836 -10.39,-74.019 -84.21,-108.16 -143.53,-135.59 l -10.23,-4.75 C 954.941,184.012 784.395,121.359 682.5,83.9102 656.316,74.3008 635.098,66.4883 622.047,61.582 621.453,61.3594 620.828,61.25 620.203,61.25"
         style="fill:#231f20;fill-opacity:1;fill-rule:nonzero;stroke:none"
         id="path68" /></g></g></svg>
